<svg id="Слой_1" data-name="Слой 1" xmlns="http://www.w3.org/2000/svg" viewBox="0 0 993 360">
  <defs>
    <style>
      .cls-1 {
        fill: #7b5eff;
      }

      .cls-2 {
        fill: #a89817;
      }
    </style>
  </defs>
  <rect class="cls-1" x="13" y="205" width="141" height="141"/>
  <rect class="cls-1" x="171" y="248" width="98" height="98"/>
  <rect class="cls-2" x="426" y="263" width="83" height="83"/>
  <rect class="cls-2" x="203" y="121" width="114" height="114"/>
  <rect class="cls-2" x="509" y="180" width="49" height="49"/>
  <rect class="cls-2" x="817" y="275" width="71" height="71"/>
  <rect class="cls-2" x="76" y="121" width="71" height="71"/>
  <rect class="cls-1" x="896" y="239" width="71" height="71"/>
  <rect class="cls-1" x="852" y="215" width="28" height="28"/>
  <rect class="cls-1" x="781" y="215" width="48" height="48"/>
  <rect class="cls-1" x="379" y="170" width="78" height="78"/>
  <rect class="cls-1" x="322" y="279" width="64" height="64"/>
  <rect class="cls-2" x="842" y="157" width="48" height="48"/>
  <rect class="cls-2" x="744" y="298" width="48" height="48"/>
  <rect class="cls-1" x="567" y="193" width="153" height="153"/>
</svg>
