<?xml version="1.0" encoding="utf-8"?>
<!-- Generator: Adobe Illustrator 26.0.3, SVG Export Plug-In . SVG Version: 6.00 Build 0)  -->
<svg version="1.1" id="Слой_1" xmlns="http://www.w3.org/2000/svg" xmlns:xlink="http://www.w3.org/1999/xlink" x="0px" y="0px"
	 viewBox="0 0 2042.1 249.5" style="enable-background:new 0 0 2042.1 249.5;" xml:space="preserve">
<style type="text/css">
	.st0{fill:#7B5EFF;}
	.st1{fill:#A89817;}
</style>
<rect x="13" y="89" class="st0" width="141" height="141"/>
<rect x="187.1" y="145" class="st0" width="98" height="98"/>
<rect x="426" y="152.5" class="st1" width="83" height="83"/>
<rect x="203" y="10.5" class="st1" width="114" height="114"/>
<rect x="509" y="69.5" class="st1" width="49" height="49"/>
<rect x="817" y="164.5" class="st1" width="71" height="71"/>
<rect x="100" y="6" class="st1" width="71" height="71"/>
<rect x="896" y="128.5" class="st0" width="71" height="71"/>
<rect x="852" y="104.5" class="st0" width="28" height="28"/>
<rect x="931.5" y="39.5" class="st0" width="14" height="14"/>
<rect x="781" y="104.5" class="st0" width="48" height="48"/>
<rect x="677.6" y="6" class="st0" width="48" height="48"/>
<rect x="575.1" y="19.5" class="st0" width="27" height="27"/>
<rect x="379" y="59.5" class="st0" width="78" height="78"/>
<rect x="317" y="162" class="st0" width="64" height="64"/>
<rect x="842" y="46.5" class="st1" width="48" height="48"/>
<rect x="974" y="71.1" class="st1" width="24" height="24"/>
<rect x="1009.1" y="21" class="st1" width="24" height="24"/>
<rect x="744" y="187.5" class="st1" width="48" height="48"/>
<rect x="740.9" y="56" class="st1" width="27.1" height="27.1"/>
<rect x="1864.9" y="171.5" class="st1" width="71" height="71"/>
<rect x="1943.9" y="135.5" class="st0" width="71" height="71"/>
<rect x="1899.9" y="111.5" class="st0" width="28" height="28"/>
<rect x="1537" y="150" class="st0" width="28" height="28"/>
<rect x="918" y="86.5" class="st0" width="28" height="28"/>
<rect x="1815" y="39.5" class="st0" width="28" height="28"/>
<rect x="1828.9" y="111.5" class="st0" width="48" height="48"/>
<rect x="1889.9" y="53.5" class="st1" width="48" height="48"/>
<rect x="1791.9" y="194.5" class="st1" width="48" height="48"/>
<rect x="578" y="63" class="st0" width="153" height="153"/>
<rect x="1004.5" y="100.5" class="st0" width="141" height="141"/>
<rect x="1170" y="133" class="st0" width="98" height="98"/>
<rect x="1431" y="152.5" class="st1" width="83" height="83"/>
<rect x="1208.5" y="6" class="st1" width="114" height="114"/>
<rect x="1508" y="65" class="st1" width="49" height="49"/>
<rect x="1756.9" y="76" class="st1" width="49" height="49"/>
<rect x="1075" y="6" class="st1" width="71" height="71"/>
<rect x="1378" y="55" class="st0" width="78" height="78"/>
<rect x="1321" y="164" class="st0" width="64" height="64"/>
<rect x="1588" y="63" class="st0" width="153" height="153"/>
</svg>
