<?xml version="1.0" encoding="utf-8"?>
<!-- Generator: Adobe Illustrator 26.0.3, SVG Export Plug-In . SVG Version: 6.00 Build 0)  -->
<svg version="1.1" id="Слой_1" xmlns="http://www.w3.org/2000/svg" xmlns:xlink="http://www.w3.org/1999/xlink" x="0px" y="0px"
	 viewBox="0 0 153.7 70" style="enable-background:new 0 0 153.7 70;" xml:space="preserve">
<style type="text/css">
	.st0{fill:#FCFCFC;}
</style>
<g>
	<path class="st0" d="M136.5,7.5v46c0,3.4,0.1,7.2,0.3,9.8h-6.2l-0.3-6.6h-0.2c-2.1,4.2-6.8,7.5-13,7.5c-9.2,0-16.2-7.8-16.2-19.3
		c-0.1-12.7,7.8-20.4,17-20.4c5.8,0,9.7,2.8,11.5,5.8h0.2V7.5H136.5z M129.6,40.7c0-0.9-0.1-2-0.3-2.9c-1-4.4-4.8-8-10-8
		c-7.1,0-11.4,6.3-11.4,14.7c0,7.7,3.8,14.1,11.2,14.1c4.6,0,8.9-3.1,10.1-8.3c0.2-0.9,0.3-1.9,0.3-3V40.7z"/>
</g>
<rect x="65.3" y="60.3" class="st0" width="30" height="2.9"/>
<path class="st0" d="M3.6,7v56h56V7H3.6z M46.3,32.3L35.5,20.7L36,59.3h-8.1l0.4-38.2L16.9,31.8v-7.1l15.3-13.9l14.1,13.9V32.3z"/>
</svg>
